<svg width="156" height="41" viewBox="0 0 156 41" fill="none" xmlns="http://www.w3.org/2000/svg">
<path d="M9.84 40.3702C9.01333 40.3169 8.21333 40.1702 7.44 39.9302C6.66667 39.6635 5.94667 39.2902 5.28 38.8102C4.90667 38.5435 4.53333 38.2369 4.16 37.8902C3.81333 37.5435 3.50667 37.1835 3.24 36.8102C2.6 35.9035 2.10667 34.9302 1.76 33.8902C1.41333 32.8502 1.18667 31.7835 1.08 30.6902C0.973333 29.5969 0.973333 28.5035 1.08 27.4102C1.21333 26.2902 1.42667 25.2102 1.72 24.1702C1.98667 23.1035 2.37333 22.0235 2.88 20.9302C3.94667 18.6102 5.17333 16.4502 6.56 14.4502C7.94667 12.4235 9.56 10.5302 11.4 8.77019C11.9067 8.29019 12.4267 7.83686 12.96 7.4102C13.4933 6.95686 14.0267 6.50353 14.56 6.05019C15.4133 5.38353 16.28 4.75686 17.16 4.1702C18.0667 3.58353 18.9867 3.03686 19.92 2.53019C20.24 2.37019 20.56 2.23686 20.88 2.13019C21.2 2.02353 21.5067 1.90353 21.8 1.7702C22.6267 1.39686 23.4933 1.09019 24.4 0.850193C25.3067 0.610193 26.2133 0.463527 27.12 0.410193C27.9733 0.383527 28.7867 0.450193 29.56 0.610193C30.36 0.743526 31.1067 1.07686 31.8 1.6102C32.4933 2.14353 33.0267 2.78353 33.4 3.53019C33.7733 4.27686 34 5.07686 34.08 5.93019C34.1867 7.37019 34.0133 8.7702 33.56 10.1302C33.1333 11.4902 32.5467 12.7702 31.8 13.9702C31.1333 15.0369 30.4 16.0902 29.6 17.1302C28.8 18.1435 27.8933 19.0235 26.88 19.7702C26.3467 20.1702 25.72 20.5435 25 20.8902C24.3067 21.2369 23.5733 21.5035 22.8 21.6902C22.0533 21.8769 21.2933 21.9569 20.52 21.9302C19.7733 21.8769 19.0933 21.6502 18.48 21.2502C17.76 20.7969 17.28 20.2102 17.04 19.4902C16.8 18.7435 16.7067 17.9702 16.76 17.1702C16.8133 16.3702 17 15.5835 17.32 14.8102C17.64 14.0369 18 13.3702 18.4 12.8102C18.9333 12.0902 19.56 11.4635 20.28 10.9302C20.4133 10.8235 20.7333 10.6235 21.24 10.3302C21.7467 10.0369 22.2667 9.79686 22.8 9.61019C23.36 9.39686 23.8533 9.30353 24.28 9.33019C24.7067 9.33019 24.92 9.58353 24.92 10.0902C24.92 10.3035 24.84 10.5035 24.68 10.6902C24.5467 10.8769 24.3733 11.0369 24.16 11.1702C23.9467 11.3035 23.72 11.4369 23.48 11.5702C23.2667 11.6769 23.08 11.7702 22.92 11.8502C22.4667 12.1169 22.0533 12.4102 21.68 12.7302C21.3333 13.0235 21.0267 13.3969 20.76 13.8502C20.4667 14.3302 20.28 14.8635 20.2 15.4502C20.1467 16.0369 20.2133 16.5835 20.4 17.0902C20.5867 17.5702 20.8933 17.9702 21.32 18.2902C21.7467 18.6102 22.3067 18.7702 23 18.7702C23.56 18.7435 24.1067 18.6102 24.64 18.3702C25.1733 18.1035 25.6533 17.8102 26.08 17.4902C27.12 16.6902 28.04 15.6769 28.84 14.4502C29.64 13.2235 30.1867 11.9702 30.48 10.6902C30.64 9.99686 30.7067 9.25019 30.68 8.45019C30.6533 7.62353 30.4933 6.87686 30.2 6.21019C29.8533 5.41019 29.3467 4.81019 28.68 4.4102C28.04 3.98353 27.32 3.71686 26.52 3.61019C25.72 3.47686 24.9067 3.47686 24.08 3.61019C23.2533 3.74353 22.4933 3.94353 21.8 4.2102C19.88 4.98353 18.1067 6.10353 16.48 7.5702C14.88 9.0102 13.48 10.5569 12.28 12.2102C11.1867 13.7302 10.2267 15.3702 9.4 17.1302C8.6 18.8635 7.96 20.6235 7.48 22.4102C7.21333 23.4502 7.01333 24.5169 6.88 25.6102C6.8 26.2769 6.74667 26.9435 6.72 27.6102C6.72 28.2502 6.77333 28.9035 6.88 29.5702C7.01333 30.5302 7.28 31.4102 7.68 32.2102C8.08 32.9835 8.69333 33.6635 9.52 34.2502C10.2933 34.8102 11.1333 35.1702 12.04 35.3302C12.9467 35.4635 13.8533 35.4769 14.76 35.3702C15.6933 35.2635 16.6 35.0635 17.48 34.7702C18.3867 34.4502 19.24 34.1035 20.04 33.7302C21.48 33.0635 22.8267 32.2369 24.08 31.2502C25.3333 30.2369 26.4267 29.0902 27.36 27.8102C27.4933 27.6235 27.68 27.3035 27.92 26.8502C28.16 26.3969 28.4267 25.9569 28.72 25.5302C29.0133 25.0769 29.3067 24.7035 29.6 24.4102C29.92 24.0902 30.2267 23.9969 30.52 24.1302C30.76 24.2102 30.88 24.3569 30.88 24.5702C30.9067 24.7569 30.8667 24.9569 30.76 25.1702C30.68 25.3835 30.5733 25.5969 30.44 25.8102C30.3067 25.9969 30.2 26.1435 30.12 26.2502C29.7733 26.7835 29.4533 27.3169 29.16 27.8502C28.8667 28.3835 28.5333 28.9035 28.16 29.4102C27.6533 30.1302 27.0933 30.8235 26.48 31.4902C25.8667 32.1302 25.2533 32.7569 24.64 33.3702C23.2533 34.7835 21.7333 36.0369 20.08 37.1302C18.4533 38.2235 16.7067 39.0902 14.84 39.7302C14.0667 39.9969 13.2533 40.1835 12.4 40.2902C11.5467 40.3969 10.6933 40.4235 9.84 40.3702ZM24.9237 40.3302C24.8704 40.3035 24.8438 40.2902 24.8438 40.2902C24.3638 40.1302 23.9771 39.8769 23.6838 39.5302C23.4171 39.1569 23.2171 38.7435 23.0837 38.2902C22.9504 37.8369 22.8704 37.3702 22.8438 36.8902C22.8438 36.3835 22.8704 35.9169 22.9238 35.4902C23.0038 34.8502 23.1504 34.1835 23.3637 33.4902C23.6571 32.6102 24.0437 31.7569 24.5238 30.9302C25.2438 29.7302 26.0171 28.5835 26.8438 27.4902C27.6704 26.3969 28.6171 25.3835 29.6837 24.4502C29.9771 24.1835 30.2838 23.9302 30.6038 23.6902C30.9238 23.4502 31.2571 23.2102 31.6038 22.9702C32.1104 22.6502 32.6171 22.3435 33.1238 22.0502C33.6571 21.7569 34.2171 21.5035 34.8038 21.2902C35.2838 21.1035 35.7638 20.9169 36.2438 20.7302C36.7504 20.5435 37.2704 20.4502 37.8038 20.4502C38.0437 20.4769 38.2838 20.5035 38.5238 20.5302C38.7904 20.5569 39.0438 20.6102 39.2838 20.6902C39.6571 20.7969 39.9104 21.0102 40.0438 21.3302C40.2038 21.6502 40.3904 21.9569 40.6038 22.2502C40.5771 22.1969 40.6304 22.0635 40.7638 21.8502C40.9237 21.6102 41.0304 21.4635 41.0837 21.4102C41.2438 21.1435 41.4838 20.9435 41.8038 20.8102C42.2038 20.6502 42.6438 20.5835 43.1238 20.6102C43.6304 20.6369 44.1104 20.6369 44.5638 20.6102C44.7771 20.6102 44.9904 20.5702 45.2038 20.4902C45.4171 20.3835 45.6304 20.3969 45.8438 20.5302C45.9771 20.6102 46.0571 20.7169 46.0838 20.8502C46.1104 20.9835 46.0971 21.1169 46.0438 21.2502C45.9904 21.3569 45.9238 21.4769 45.8438 21.6102C45.7638 21.7435 45.6971 21.8502 45.6438 21.9302C44.8171 23.1569 44.0438 24.4102 43.3238 25.6902C42.6038 26.9435 41.8704 28.2102 41.1237 29.4902C40.9104 29.8635 40.6971 30.2369 40.4838 30.6102C40.2704 30.9835 40.0438 31.3569 39.8038 31.7302C39.3238 32.5035 38.8171 33.3035 38.2838 34.1302C37.7504 34.9569 37.3771 35.8369 37.1638 36.7702C37.1104 36.9302 37.0838 37.1169 37.0838 37.3302C37.0838 37.5435 37.1904 37.7035 37.4038 37.8102C37.5638 37.8902 37.7504 37.9035 37.9637 37.8502C38.1771 37.7702 38.3904 37.6635 38.6038 37.5302C38.8171 37.3702 39.0171 37.2102 39.2038 37.0502C39.3904 36.8902 39.5371 36.7702 39.6437 36.6902C40.2304 36.1302 40.7904 35.5702 41.3238 35.0102C41.8571 34.4502 42.3904 33.8635 42.9238 33.2502C43.3771 32.7169 43.8171 32.1835 44.2438 31.6502C44.6704 31.1169 45.0704 30.5569 45.4437 29.9702C45.4971 29.8902 45.5638 29.7835 45.6438 29.6502C45.7504 29.4902 45.8571 29.3702 45.9638 29.2902C46.0971 29.1835 46.2171 29.1302 46.3238 29.1302C46.4571 29.1035 46.5771 29.1702 46.6838 29.3302C46.7638 29.4635 46.7771 29.6102 46.7238 29.7702C46.6971 29.9035 46.6304 30.0502 46.5238 30.2102C46.4438 30.3435 46.3504 30.4769 46.2438 30.6102C46.1371 30.7169 46.0438 30.8102 45.9638 30.8902C45.6971 31.2102 45.4438 31.5435 45.2038 31.8902C44.9638 32.2369 44.6971 32.5702 44.4038 32.8902C44.2171 33.1569 44.0171 33.4102 43.8038 33.6502C43.6171 33.8902 43.4171 34.1302 43.2038 34.3702C42.7238 34.9302 42.2304 35.4902 41.7238 36.0502C41.2438 36.5835 40.7504 37.1169 40.2438 37.6502C39.8971 38.0235 39.4571 38.4369 38.9238 38.8902C38.4171 39.3169 37.8704 39.6769 37.2838 39.9702C36.6971 40.2369 36.1104 40.3835 35.5238 40.4102C34.9371 40.4369 34.4038 40.2102 33.9238 39.7302C33.4704 39.3035 33.1771 38.7835 33.0438 38.1702C32.9371 37.5569 32.9504 36.9569 33.0838 36.3702C33.1371 36.2369 33.1904 36.1035 33.2438 35.9702C33.2971 35.8369 33.3104 35.7035 33.2838 35.5702C33.1504 35.5969 33.0171 35.6902 32.8838 35.8502C32.7771 35.9835 32.6704 36.1035 32.5638 36.2102C32.3504 36.3969 32.1504 36.5835 31.9637 36.7702C31.8038 36.9569 31.6304 37.1569 31.4438 37.3702C30.6171 38.2502 29.6838 38.9835 28.6438 39.5702C28.1104 39.8902 27.5104 40.1435 26.8438 40.3302C26.1771 40.4902 25.5371 40.4902 24.9237 40.3302ZM28.6038 37.5302C29.3238 37.1835 29.9637 36.7435 30.5237 36.2102C31.1104 35.6502 31.6571 35.0635 32.1638 34.4502C33.0171 33.3835 33.8304 32.3035 34.6038 31.2102C35.3771 30.0902 36.0971 28.9302 36.7638 27.7302C37.0571 27.1969 37.3504 26.6635 37.6438 26.1302C37.9371 25.5969 38.1904 25.0369 38.4038 24.4502C38.5104 24.1035 38.5904 23.7302 38.6438 23.3302C38.7238 22.9302 38.6438 22.5702 38.4038 22.2502C38.1104 21.8769 37.7238 21.7435 37.2438 21.8502C36.7638 21.9569 36.3504 22.1035 36.0038 22.2902C35.0438 22.8235 34.1771 23.5569 33.4037 24.4902C32.6571 25.4235 31.9638 26.3302 31.3238 27.2102C30.9504 27.6902 30.6038 28.1835 30.2838 28.6902C29.9638 29.1969 29.6304 29.7035 29.2838 30.2102C28.9371 30.7169 28.6171 31.2369 28.3238 31.7702C28.0304 32.3035 27.7371 32.8502 27.4438 33.4102C27.3371 33.6502 27.2038 33.9169 27.0437 34.2102C26.9104 34.5035 26.7904 34.8102 26.6837 35.1302C26.5771 35.4502 26.4971 35.7702 26.4438 36.0902C26.4171 36.3835 26.4704 36.6635 26.6037 36.9302C26.8171 37.3835 27.0971 37.6502 27.4438 37.7302C27.7904 37.7835 28.1771 37.7169 28.6038 37.5302ZM36.6519 40.0502C36.4919 39.6769 36.5452 39.3569 36.8119 39.0902C37.0785 38.8235 37.3585 38.6102 37.6519 38.4502C37.9985 38.2369 38.3452 38.0369 38.6919 37.8502C39.0652 37.6369 39.4252 37.3969 39.7719 37.1302C40.4919 36.5702 41.1452 35.9435 41.7319 35.2502C42.3452 34.5302 42.9052 33.7835 43.4119 33.0102C43.8119 32.4235 44.2119 31.8635 44.6119 31.3302C45.0385 30.7702 45.4519 30.1969 45.8519 29.6102C46.2519 28.9969 46.6385 28.3969 47.0119 27.8102C47.3852 27.1969 47.7719 26.5835 48.1719 25.9702C48.6519 25.2235 49.0785 24.4635 49.4519 23.6902C49.8252 22.8902 50.2385 22.1169 50.6919 21.3702C50.9052 20.9969 51.1319 20.7169 51.3719 20.5302C51.6385 20.3435 51.9852 20.3969 52.4119 20.6902C53.3452 21.3035 54.3052 21.5569 55.2919 21.4502C56.2785 21.3435 57.2785 21.1435 58.2919 20.8502C58.5852 20.7702 58.8652 20.7835 59.1319 20.8902C59.3985 20.9969 59.5185 21.2369 59.4919 21.6102C59.4652 21.9835 59.2919 22.3435 58.9719 22.6902C58.6519 23.0102 58.3852 23.3035 58.1719 23.5702C57.8519 23.9435 57.5452 24.3169 57.2519 24.6902C56.9585 25.0369 56.6652 25.3969 56.3719 25.7702C55.1985 27.3435 54.1452 28.9302 53.2119 30.5302C52.9185 31.0102 52.6385 31.4902 52.3719 31.9702C52.1319 32.4502 51.9052 32.9302 51.6919 33.4102C51.6119 33.5435 51.4919 33.8102 51.3319 34.2102C51.1719 34.5835 51.0385 34.9835 50.9319 35.4102C50.8252 35.8369 50.7719 36.2235 50.7719 36.5702C50.7985 36.9169 50.9585 37.1302 51.2519 37.2102C51.5452 37.2902 51.8252 37.2902 52.0919 37.2102C52.3852 37.1035 52.6652 36.9702 52.9319 36.8102C53.1985 36.6235 53.4385 36.4235 53.6519 36.2102C53.8919 35.9702 54.1052 35.7569 54.2919 35.5702C55.1185 34.7169 55.8652 33.7969 56.5319 32.8102C57.2252 31.8235 57.9185 30.8635 58.6119 29.9302C58.7452 29.7435 58.9185 29.4902 59.1319 29.1702C59.3719 28.8502 59.6252 28.7035 59.8919 28.7302C60.2119 28.7569 60.3452 28.9169 60.2919 29.2102C60.2652 29.4769 60.1585 29.7835 59.9719 30.1302C59.7852 30.4502 59.5719 30.7569 59.3319 31.0502C59.1185 31.3435 58.9719 31.5302 58.8919 31.6102C58.5185 32.0902 58.1452 32.5702 57.7719 33.0502C57.3985 33.5035 57.0252 33.9569 56.6519 34.4102C56.3585 34.8102 56.0519 35.2235 55.7319 35.6502C55.4119 36.0502 55.0919 36.4369 54.7719 36.8102C54.0785 37.6102 53.3052 38.3569 52.4519 39.0502C51.6252 39.7169 50.6652 40.1569 49.5719 40.3702C49.1985 40.4235 48.8119 40.4369 48.4119 40.4102C48.0385 40.3835 47.6919 40.3035 47.3719 40.1702C47.0519 40.0369 46.7585 39.8502 46.4919 39.6102C46.2519 39.3435 46.0785 39.0102 45.9719 38.6102C45.8385 38.1302 45.7852 37.6635 45.8119 37.2102C45.8385 36.7302 45.9185 36.2635 46.0519 35.8102C46.1852 35.3569 46.3452 34.9035 46.5319 34.4502C46.7185 33.9969 46.9185 33.5702 47.1319 33.1702C47.7185 31.9702 48.4785 30.8502 49.4119 29.8102C50.3452 28.7702 51.2785 27.7835 52.2119 26.8502C52.3719 26.6902 52.6119 26.4902 52.9319 26.2502C53.2785 26.0102 53.4919 25.7835 53.5719 25.5702C53.6519 25.4102 53.6519 25.3169 53.5719 25.2902C53.5185 25.2369 53.4252 25.2102 53.2919 25.2102C53.1852 25.2102 53.0519 25.2235 52.8919 25.2502C52.7585 25.2769 52.6519 25.2902 52.5719 25.2902C52.3052 25.2902 52.0519 25.2235 51.8119 25.0902C51.5719 24.9569 51.3185 24.8635 51.0519 24.8102C50.6785 24.7569 50.3852 24.8369 50.1719 25.0502C49.9852 25.2635 49.7985 25.5169 49.6119 25.8102C49.3719 26.1835 49.1319 26.5702 48.8919 26.9702C48.6519 27.3702 48.4119 27.7702 48.1719 28.1702C47.6652 29.0235 47.1452 29.8635 46.6119 30.6902C46.1052 31.4902 45.5585 32.2902 44.9719 33.0902C44.6519 33.5435 44.3185 33.9835 43.9719 34.4102C43.6252 34.8369 43.2652 35.2635 42.8919 35.6902C42.7852 35.7969 42.5852 36.0235 42.2919 36.3702C41.9985 36.7169 41.6385 37.1035 41.2119 37.5302C40.8119 37.9569 40.3719 38.3835 39.8919 38.8102C39.4119 39.2369 38.9585 39.5969 38.5319 39.8902C38.1052 40.1835 37.7185 40.3569 37.3719 40.4102C37.0252 40.4635 36.7852 40.3435 36.6519 40.0502ZM57.4844 40.4102H57.4444C57.1777 40.3569 56.911 40.3035 56.6444 40.2502C56.3777 40.1702 56.1244 40.0635 55.8844 39.9302C55.671 39.7969 55.471 39.6369 55.2844 39.4502C55.1244 39.2369 55.0044 38.9835 54.9244 38.6902C54.791 38.2102 54.831 37.7302 55.0444 37.2502C55.2577 36.7435 55.5644 36.3435 55.9644 36.0502C56.4177 35.7302 56.7377 35.6769 56.9244 35.8902C57.111 36.1035 57.2577 36.4102 57.3644 36.8102C57.471 37.2102 57.5777 37.6235 57.6844 38.0502C57.791 38.4769 57.991 38.7435 58.2844 38.8502C58.5777 38.9569 58.871 38.9302 59.1644 38.7702C59.4844 38.6102 59.7777 38.3969 60.0444 38.1302C60.311 37.8369 60.551 37.5302 60.7644 37.2102C60.9777 36.8902 61.151 36.6235 61.2844 36.4102C61.7377 35.6369 62.0977 34.8235 62.3644 33.9702C62.6577 33.1169 62.911 32.2635 63.1244 31.4102C63.4177 30.2635 63.7244 29.1035 64.0444 27.9302C64.391 26.7302 64.631 25.5302 64.7644 24.3302C64.631 24.4102 64.4977 24.5435 64.3644 24.7302C64.231 24.9169 64.1377 25.0769 64.0844 25.2102C63.9244 25.4235 63.7644 25.6235 63.6044 25.8102C63.4444 25.9702 63.2844 26.1569 63.1244 26.3702C62.831 26.7435 62.551 27.1302 62.2844 27.5302C62.0444 27.9035 61.7777 28.2769 61.4844 28.6502C60.951 29.3435 60.391 30.0769 59.8044 30.8502C59.2444 31.5969 58.6844 32.3302 58.1244 33.0502C57.6177 33.6635 57.111 34.3035 56.6044 34.9702C56.0977 35.6369 55.5644 36.2902 55.0044 36.9302C54.4444 37.5435 53.8577 38.1302 53.2444 38.6902C52.6577 39.2502 52.0177 39.7302 51.3244 40.1302C51.1644 40.2635 50.951 40.3702 50.6844 40.4502C50.4177 40.5302 50.1777 40.5169 49.9644 40.4102C49.831 40.3302 49.751 40.2235 49.7244 40.0902C49.6977 39.9569 49.6977 39.8102 49.7244 39.6502C49.751 39.4902 49.791 39.3435 49.8444 39.2102C49.9244 39.0502 49.991 38.9169 50.0444 38.8102C50.1777 38.5702 50.3644 38.3969 50.6044 38.2902C50.8444 38.1835 51.0844 38.0635 51.3244 37.9302C51.591 37.7969 51.831 37.6635 52.0444 37.5302C52.2844 37.3702 52.511 37.1969 52.7244 37.0102C53.2577 36.6102 53.7377 36.1835 54.1644 35.7302C54.6177 35.2502 55.0577 34.7569 55.4844 34.2502C56.071 33.5569 56.671 32.8769 57.2844 32.2102C57.8977 31.5169 58.4844 30.8235 59.0444 30.1302C59.6577 29.3835 60.2444 28.6369 60.8044 27.8902C61.3644 27.1169 61.9244 26.3435 62.4844 25.5702C62.9644 24.9035 63.4177 24.2369 63.8444 23.5702C64.2977 22.8769 64.7777 22.1969 65.2844 21.5302C65.4977 21.2369 65.6977 20.9969 65.8844 20.8102C66.0977 20.5969 66.3777 20.4369 66.7244 20.3302C67.071 20.2235 67.4044 20.1835 67.7244 20.2102C68.071 20.2102 68.4177 20.1969 68.7644 20.1702C69.0577 20.1435 69.3244 20.1035 69.5644 20.0502C69.8044 19.9702 70.071 19.9302 70.3644 19.9302C70.391 19.9302 70.3777 20.0102 70.3244 20.1702C70.271 20.3302 70.2044 20.5035 70.1244 20.6902C70.071 20.8769 70.0044 21.0635 69.9244 21.2502C69.8444 21.4102 69.8044 21.5035 69.8044 21.5302C69.671 21.8235 69.5377 22.1035 69.4044 22.3702C69.2977 22.6369 69.2044 22.9169 69.1244 23.2102C68.9377 23.9302 68.7777 24.6502 68.6444 25.3702C68.5377 26.0902 68.4177 26.8102 68.2844 27.5302C68.071 28.7035 67.8444 29.8502 67.6044 30.9702C67.3644 32.0902 67.0044 33.1969 66.5244 34.2902C66.151 35.1435 65.6577 35.9702 65.0444 36.7702C64.431 37.5702 63.7377 38.2635 62.9644 38.8502C62.191 39.4369 61.3377 39.8902 60.4044 40.2102C59.471 40.5035 58.4977 40.5702 57.4844 40.4102ZM88.6794 40.2902C88.386 40.2369 88.106 40.1969 87.8394 40.1702C87.5994 40.1169 87.346 40.0502 87.0794 39.9702C86.3594 39.7569 85.706 39.4102 85.1194 38.9302C84.5594 38.4502 84.1194 37.9035 83.7994 37.2902C83.506 36.6502 83.3594 35.9702 83.3594 35.2502C83.3594 34.5302 83.546 33.8102 83.9194 33.0902C84.2127 32.5835 84.5994 32.1835 85.0794 31.8902C85.586 31.5969 86.1327 31.4502 86.7194 31.4502C87.146 31.4502 87.5194 31.5702 87.8394 31.8102C88.1594 32.0235 88.4127 32.3035 88.5994 32.6502C88.786 32.9969 88.8927 33.3702 88.9194 33.7702C88.9727 34.1702 88.9327 34.5569 88.7994 34.9302C88.746 35.1169 88.6527 35.2902 88.5194 35.4502C88.386 35.6102 88.2527 35.7702 88.1194 35.9302C87.986 36.0902 87.866 36.2635 87.7594 36.4502C87.6527 36.6102 87.5994 36.7835 87.5994 36.9702C87.5994 37.4235 87.7327 37.7969 87.9994 38.0902C88.266 38.3569 88.586 38.5569 88.9594 38.6902C89.3594 38.8235 89.7727 38.9169 90.1994 38.9702C90.6527 38.9969 91.0394 39.0102 91.3594 39.0102C92.506 38.9835 93.586 38.7435 94.5994 38.2902C95.6394 37.8369 96.5994 37.2769 97.4794 36.6102C98.386 35.9169 99.226 35.1435 99.9994 34.2902C100.773 33.4369 101.479 32.5835 102.119 31.7302C102.546 31.1702 102.959 30.6102 103.359 30.0502C103.759 29.4902 104.173 28.9435 104.599 28.4102C105.213 27.6102 105.773 26.7435 106.279 25.8102C106.813 24.8502 107.293 23.9035 107.719 22.9702C108.253 21.7969 108.866 20.6769 109.559 19.6102C110.253 18.5169 110.946 17.4369 111.639 16.3702C112.626 14.8502 113.666 13.3969 114.759 12.0102C115.879 10.5969 117.159 9.3302 118.599 8.21019C119.266 7.70353 119.959 7.2502 120.679 6.8502C121.426 6.45019 122.186 6.09019 122.959 5.77019C123.706 5.47686 124.346 5.35686 124.879 5.41019C125.413 5.46353 125.679 5.67686 125.679 6.05019C125.679 6.31686 125.599 6.50353 125.439 6.61019C125.306 6.71686 125.053 6.78353 124.679 6.8102C124.279 6.83686 123.906 6.94353 123.559 7.1302C123.213 7.31686 122.893 7.54353 122.599 7.81019C122.306 8.07686 122.039 8.38353 121.799 8.73019C121.559 9.05019 121.346 9.37019 121.159 9.69019C120.626 10.5702 120.093 11.4635 119.559 12.3702C119.026 13.2502 118.546 14.1569 118.119 15.0902C117.719 15.9435 117.266 16.7835 116.759 17.6102C116.279 18.4102 115.853 19.2369 115.479 20.0902C114.599 21.9835 113.639 23.8369 112.599 25.6502C111.586 27.4369 110.439 29.1569 109.159 30.8102C108.439 31.7435 107.679 32.6235 106.879 33.4502C106.079 34.2235 105.239 34.9435 104.359 35.6102C103.479 36.2769 102.546 36.8769 101.559 37.4102C100.039 38.1835 98.506 38.8502 96.9594 39.4102C95.4127 39.9435 93.786 40.2635 92.0794 40.3702C91.5194 40.3969 90.946 40.4102 90.3594 40.4102C89.7994 40.4102 89.2394 40.3702 88.6794 40.2902ZM98.2794 25.3302C98.226 25.3035 98.1727 25.2902 98.1194 25.2902C98.066 25.2635 98.0127 25.2369 97.9594 25.2102C97.2127 24.9702 96.546 24.6502 95.9594 24.2502C95.3727 23.8235 94.946 23.2235 94.6794 22.4502C94.3327 21.4369 94.1994 20.3969 94.2794 19.3302C94.386 18.2635 94.6127 17.2235 94.9594 16.2102C95.146 15.7302 95.346 15.2635 95.5594 14.8102C95.7727 14.3302 96.0127 13.8635 96.2794 13.4102C97.0527 12.0502 97.9727 10.8102 99.0394 9.69019C100.133 8.54353 101.306 7.51686 102.559 6.61019C103.386 5.99686 104.226 5.42353 105.079 4.89019C105.959 4.35686 106.866 3.87686 107.799 3.45019C108.919 2.91686 110.053 2.46353 111.199 2.09019C112.373 1.6902 113.559 1.34353 114.759 1.0502C116.573 0.596861 118.453 0.383527 120.399 0.410193C122.346 0.410193 124.199 0.716861 125.959 1.3302C127.533 1.89019 128.893 2.79686 130.039 4.0502C131.213 5.30353 131.959 6.75686 132.279 8.41019C132.439 9.26353 132.479 10.1302 132.399 11.0102C132.319 11.6502 132.173 12.3302 131.959 13.0502C131.773 13.7435 131.533 14.3835 131.239 14.9702C130.946 15.5569 130.559 16.1569 130.079 16.7702C129.466 17.6502 128.746 18.3969 127.919 19.0102C127.093 19.6235 126.199 20.1569 125.239 20.6102C124.386 21.0369 123.479 21.3302 122.519 21.4902C121.559 21.6502 120.613 21.7835 119.679 21.8902C119.413 21.9169 119.106 21.9435 118.759 21.9702C118.439 21.9969 118.119 21.9835 117.799 21.9302C117.506 21.8502 117.226 21.7302 116.959 21.5702C116.693 21.4102 116.506 21.1702 116.399 20.8502C116.346 20.7169 116.346 20.5569 116.399 20.3702C116.479 20.1569 116.586 20.0235 116.719 19.9702C117.013 19.8369 117.306 19.8369 117.599 19.9702C117.919 20.0769 118.213 20.1569 118.479 20.2102C119.439 20.4235 120.346 20.3702 121.199 20.0502C122.053 19.7035 122.839 19.2235 123.559 18.6102C124.279 17.9702 124.906 17.2369 125.439 16.4102C125.999 15.5835 126.439 14.7835 126.759 14.0102C127.213 12.8635 127.506 11.6369 127.639 10.3302C127.773 8.99686 127.586 7.74353 127.079 6.57019C126.759 5.82353 126.373 5.19686 125.919 4.6902C125.493 4.15686 124.933 3.6902 124.239 3.29019C123.626 2.94353 122.959 2.69019 122.239 2.53019C121.519 2.34353 120.786 2.23686 120.039 2.21019C119.293 2.15686 118.546 2.15686 117.799 2.21019C117.053 2.23686 116.346 2.29019 115.679 2.37019C114.399 2.50353 113.133 2.81019 111.879 3.29019C110.626 3.74353 109.426 4.3302 108.279 5.05019C107.133 5.74353 106.053 6.54353 105.039 7.4502C104.053 8.35686 103.159 9.30353 102.359 10.2902C101.879 10.9035 101.359 11.6635 100.799 12.5702C100.239 13.4769 99.786 14.4235 99.4394 15.4102C99.0927 16.3702 98.9194 17.3435 98.9194 18.3302C98.9194 19.2902 99.226 20.1569 99.8394 20.9302C100.213 21.4102 100.639 21.7435 101.119 21.9302C101.599 22.0902 102.093 22.1702 102.599 22.1702C103.106 22.1435 103.613 22.0369 104.119 21.8502C104.626 21.6635 105.106 21.4502 105.559 21.2102C105.666 21.1569 105.826 21.0635 106.039 20.9302C106.279 20.7702 106.519 20.6502 106.759 20.5702C106.999 20.4635 107.226 20.4102 107.439 20.4102C107.679 20.3835 107.839 20.4635 107.919 20.6502C108.026 20.8902 107.999 21.1435 107.839 21.4102C107.679 21.6769 107.466 21.9435 107.199 22.2102C106.959 22.4769 106.693 22.7169 106.399 22.9302C106.106 23.1169 105.893 23.2635 105.759 23.3702C104.986 23.9035 104.133 24.3569 103.199 24.7302C102.293 25.1035 101.373 25.3435 100.439 25.4502C99.7194 25.5302 98.9994 25.4902 98.2794 25.3302ZM115.111 40.3302C115.058 40.3035 115.031 40.2902 115.031 40.2902C114.551 40.1302 114.165 39.8769 113.871 39.5302C113.605 39.1569 113.405 38.7435 113.271 38.2902C113.138 37.8369 113.058 37.3702 113.031 36.8902C113.031 36.3835 113.058 35.9169 113.111 35.4902C113.191 34.8502 113.338 34.1835 113.551 33.4902C113.845 32.6102 114.231 31.7569 114.711 30.9302C115.431 29.7302 116.205 28.5835 117.031 27.4902C117.858 26.3969 118.805 25.3835 119.871 24.4502C120.165 24.1835 120.471 23.9302 120.791 23.6902C121.111 23.4502 121.445 23.2102 121.791 22.9702C122.298 22.6502 122.805 22.3435 123.311 22.0502C123.845 21.7569 124.405 21.5035 124.991 21.2902C125.471 21.1035 125.951 20.9169 126.431 20.7302C126.938 20.5435 127.458 20.4502 127.991 20.4502C128.231 20.4769 128.471 20.5035 128.711 20.5302C128.978 20.5569 129.231 20.6102 129.471 20.6902C129.845 20.7969 130.098 21.0102 130.231 21.3302C130.391 21.6502 130.578 21.9569 130.791 22.2502C130.765 22.1969 130.818 22.0635 130.951 21.8502C131.111 21.6102 131.218 21.4635 131.271 21.4102C131.431 21.1435 131.671 20.9435 131.991 20.8102C132.391 20.6502 132.831 20.5835 133.311 20.6102C133.818 20.6369 134.298 20.6369 134.751 20.6102C134.965 20.6102 135.178 20.5702 135.391 20.4902C135.605 20.3835 135.818 20.3969 136.031 20.5302C136.165 20.6102 136.245 20.7169 136.271 20.8502C136.298 20.9835 136.285 21.1169 136.231 21.2502C136.178 21.3569 136.111 21.4769 136.031 21.6102C135.951 21.7435 135.885 21.8502 135.831 21.9302C135.005 23.1569 134.231 24.4102 133.511 25.6902C132.791 26.9435 132.058 28.2102 131.311 29.4902C131.098 29.8635 130.885 30.2369 130.671 30.6102C130.458 30.9835 130.231 31.3569 129.991 31.7302C129.511 32.5035 129.005 33.3035 128.471 34.1302C127.938 34.9569 127.565 35.8369 127.351 36.7702C127.298 36.9302 127.271 37.1169 127.271 37.3302C127.271 37.5435 127.378 37.7035 127.591 37.8102C127.751 37.8902 127.938 37.9035 128.151 37.8502C128.365 37.7702 128.578 37.6635 128.791 37.5302C129.005 37.3702 129.205 37.2102 129.391 37.0502C129.578 36.8902 129.725 36.7702 129.831 36.6902C130.418 36.1302 130.978 35.5702 131.511 35.0102C132.045 34.4502 132.578 33.8635 133.111 33.2502C133.565 32.7169 134.005 32.1835 134.431 31.6502C134.858 31.1169 135.258 30.5569 135.631 29.9702C135.685 29.8902 135.751 29.7835 135.831 29.6502C135.938 29.4902 136.045 29.3702 136.151 29.2902C136.285 29.1835 136.405 29.1302 136.511 29.1302C136.645 29.1035 136.765 29.1702 136.871 29.3302C136.951 29.4635 136.965 29.6102 136.911 29.7702C136.885 29.9035 136.818 30.0502 136.711 30.2102C136.631 30.3435 136.538 30.4769 136.431 30.6102C136.325 30.7169 136.231 30.8102 136.151 30.8902C135.885 31.2102 135.631 31.5435 135.391 31.8902C135.151 32.2369 134.885 32.5702 134.591 32.8902C134.405 33.1569 134.205 33.4102 133.991 33.6502C133.805 33.8902 133.605 34.1302 133.391 34.3702C132.911 34.9302 132.418 35.4902 131.911 36.0502C131.431 36.5835 130.938 37.1169 130.431 37.6502C130.085 38.0235 129.645 38.4369 129.111 38.8902C128.605 39.3169 128.058 39.6769 127.471 39.9702C126.885 40.2369 126.298 40.3835 125.711 40.4102C125.125 40.4369 124.591 40.2102 124.111 39.7302C123.658 39.3035 123.365 38.7835 123.231 38.1702C123.125 37.5569 123.138 36.9569 123.271 36.3702C123.325 36.2369 123.378 36.1035 123.431 35.9702C123.485 35.8369 123.498 35.7035 123.471 35.5702C123.338 35.5969 123.205 35.6902 123.071 35.8502C122.965 35.9835 122.858 36.1035 122.751 36.2102C122.538 36.3969 122.338 36.5835 122.151 36.7702C121.991 36.9569 121.818 37.1569 121.631 37.3702C120.805 38.2502 119.871 38.9835 118.831 39.5702C118.298 39.8902 117.698 40.1435 117.031 40.3302C116.365 40.4902 115.725 40.4902 115.111 40.3302ZM118.791 37.5302C119.511 37.1835 120.151 36.7435 120.711 36.2102C121.298 35.6502 121.845 35.0635 122.351 34.4502C123.205 33.3835 124.018 32.3035 124.791 31.2102C125.565 30.0902 126.285 28.9302 126.951 27.7302C127.245 27.1969 127.538 26.6635 127.831 26.1302C128.125 25.5969 128.378 25.0369 128.591 24.4502C128.698 24.1035 128.778 23.7302 128.831 23.3302C128.911 22.9302 128.831 22.5702 128.591 22.2502C128.298 21.8769 127.911 21.7435 127.431 21.8502C126.951 21.9569 126.538 22.1035 126.191 22.2902C125.231 22.8235 124.365 23.5569 123.591 24.4902C122.845 25.4235 122.151 26.3302 121.511 27.2102C121.138 27.6902 120.791 28.1835 120.471 28.6902C120.151 29.1969 119.818 29.7035 119.471 30.2102C119.125 30.7169 118.805 31.2369 118.511 31.7702C118.218 32.3035 117.925 32.8502 117.631 33.4102C117.525 33.6502 117.391 33.9169 117.231 34.2102C117.098 34.5035 116.978 34.8102 116.871 35.1302C116.765 35.4502 116.685 35.7702 116.631 36.0902C116.605 36.3835 116.658 36.6635 116.791 36.9302C117.005 37.3835 117.285 37.6502 117.631 37.7302C117.978 37.7835 118.365 37.7169 118.791 37.5302ZM135.581 40.2902C135.207 40.1835 134.834 39.9835 134.461 39.6902C133.821 39.2102 133.407 38.6235 133.221 37.9302C133.061 37.2102 133.034 36.4635 133.141 35.6902C133.221 34.9169 133.407 34.1569 133.701 33.4102C133.994 32.6635 134.301 32.0102 134.621 31.4502C135.634 29.5569 136.714 27.6902 137.861 25.8502C139.034 24.0102 140.261 22.2235 141.541 20.4902C141.941 20.0102 142.261 19.5569 142.501 19.1302C142.581 18.9702 142.661 18.7835 142.741 18.5702C142.847 18.3569 142.994 18.2102 143.181 18.1302C143.021 17.9969 142.781 17.9302 142.461 17.9302C142.141 17.9035 141.834 17.8902 141.541 17.8902C141.247 17.8635 140.994 17.7969 140.781 17.6902C140.567 17.5835 140.487 17.3702 140.541 17.0502C140.594 16.7569 140.741 16.5569 140.981 16.4502C141.247 16.3435 141.527 16.2902 141.821 16.2902C142.141 16.2635 142.447 16.2769 142.741 16.3302C143.061 16.3569 143.314 16.3569 143.501 16.3302C143.874 16.2769 144.207 16.1435 144.501 15.9302C144.794 15.7169 145.061 15.4635 145.301 15.1702C145.541 14.8502 145.754 14.5302 145.941 14.2102C146.127 13.8635 146.301 13.5435 146.461 13.2502C146.754 12.7169 147.034 12.1835 147.301 11.6502C147.594 11.1169 147.861 10.5702 148.101 10.0102C148.181 9.79686 148.261 9.55686 148.341 9.29019C148.421 8.99686 148.501 8.71686 148.581 8.45019C148.687 8.15686 148.794 7.89019 148.901 7.6502C149.034 7.38353 149.194 7.1702 149.381 7.0102C149.594 6.85019 149.847 6.74353 150.141 6.69019C150.434 6.63686 150.741 6.61019 151.061 6.61019C151.381 6.61019 151.701 6.62353 152.021 6.65019C152.341 6.67686 152.634 6.66353 152.901 6.61019C153.221 6.55686 153.581 6.53019 153.981 6.53019C154.381 6.50353 154.687 6.67686 154.901 7.0502C155.034 7.31686 155.034 7.62353 154.901 7.97019C154.794 8.29019 154.687 8.58353 154.581 8.85019C154.367 9.46353 154.074 10.0502 153.701 10.6102C153.354 11.1702 153.007 11.7435 152.661 12.3302C152.287 12.9702 151.847 13.6369 151.341 14.3302C150.834 14.9969 150.474 15.7035 150.261 16.4502C150.421 16.5035 150.621 16.5302 150.861 16.5302C151.101 16.5035 151.341 16.4902 151.581 16.4902C151.847 16.4635 152.087 16.4635 152.301 16.4902C152.541 16.4902 152.741 16.5435 152.901 16.6502C153.087 16.8102 153.114 17.0502 152.981 17.3702C152.847 17.6902 152.687 17.9035 152.501 18.0102C152.127 18.2235 151.701 18.3035 151.221 18.2502C150.767 18.1702 150.341 18.1435 149.941 18.1702C149.381 18.1702 148.941 18.3435 148.621 18.6902C148.301 19.0102 148.007 19.3969 147.741 19.8502C146.487 21.8769 145.247 23.8902 144.021 25.8902C142.794 27.8902 141.501 29.8769 140.141 31.8502C139.794 32.3569 139.474 32.8769 139.181 33.4102C138.887 33.9435 138.674 34.5035 138.541 35.0902C138.407 35.5435 138.394 35.9302 138.501 36.2502C138.607 36.5702 138.781 36.8102 139.021 36.9702C139.261 37.1302 139.554 37.1969 139.901 37.1702C140.247 37.1435 140.621 37.0235 141.021 36.8102C141.714 36.4369 142.314 35.9569 142.821 35.3702C143.354 34.7569 143.861 34.1435 144.341 33.5302C144.927 32.8102 145.487 32.0902 146.021 31.3702C146.581 30.6235 147.154 29.8902 147.741 29.1702C147.821 29.0902 147.967 28.9035 148.181 28.6102C148.421 28.3169 148.674 28.0369 148.941 27.7702C149.207 27.4769 149.461 27.2502 149.701 27.0902C149.967 26.9302 150.167 26.9435 150.301 27.1302C150.434 27.3435 150.421 27.6502 150.261 28.0502C150.101 28.4235 149.887 28.8235 149.621 29.2502C149.381 29.6502 149.114 30.0369 148.821 30.4102C148.554 30.7569 148.367 30.9969 148.261 31.1302C147.754 31.8235 147.207 32.4902 146.621 33.1302C146.061 33.7435 145.487 34.3569 144.901 34.9702C144.341 35.5569 143.714 36.2235 143.021 36.9702C142.354 37.7169 141.621 38.3969 140.821 39.0102C140.021 39.5969 139.181 40.0369 138.301 40.3302C137.421 40.6235 136.514 40.6102 135.581 40.2902Z" fill="#FF8739"/>
</svg>
